<svg width="10" height="8" viewBox="0 0 10 8" fill="none" xmlns="http://www.w3.org/2000/svg">
<path d="M7.57143 2C7.41363 2 7.28571 1.87209 7.28571 1.71428V0H3.85714C3.38376 0 3 0.383755 3 0.857142V7.14286C3 7.61624 3.38376 8 3.85714 8H8.42857C8.90196 8 9.28572 7.61624 9.28572 7.14286V2H7.57143Z" fill="white" fill-opacity="0.4"/>
<path d="M7.85718 0.16748V1.42862H9.11833L7.85718 0.16748Z" fill="white" fill-opacity="0.4"/>
<path d="M3.21009 4.27586V4.8205V4.82114C3.20978 4.96287 3.14603 5.097 3.03634 5.18673L3.03633 5.18674C2.83387 5.35235 2.53547 5.32251 2.36983 5.12005C2.36982 5.12004 2.36982 5.12004 2.36982 5.12004L0.806878 3.20978L0.806544 3.20937C0.659093 3.02851 0.665345 2.76723 0.821222 2.59362L0.821458 2.59336L2.3844 0.856742L2.38453 0.8566C2.47427 0.757012 2.60206 0.700037 2.73628 0.7L3.21009 4.27586ZM3.21009 4.27586C3.70831 4.32806 4.10554 4.46624 4.41738 4.67969C4.78837 4.93362 5.06356 5.31113 5.23944 5.83873L5.23951 5.83895C5.30407 6.03214 5.4849 6.16238 5.68855 6.16246L5.68867 5.86246C5.69803 5.86249 5.70739 5.86173 5.71663 5.86021L5.76494 6.15629C5.99407 6.11891 6.16233 5.92096 6.16233 5.6888C6.16232 3.63562 4.9748 2.02159 3.21009 1.77458V1.17361V1.17352C3.21 0.91195 2.99791 0.699935 2.73631 0.7L3.21009 4.27586Z" fill="white" stroke="#312C4E" stroke-width="0.6"/>
</svg>
