<svg width="10" height="11" viewBox="0 0 10 11" fill="none" xmlns="http://www.w3.org/2000/svg">
<path d="M10 5.51758C10 8.279 7.76142 10.5176 5 10.5176C2.23858 10.5176 0 8.279 0 5.51758C0 2.75615 2.23858 0.517578 5 0.517578C7.76142 0.517578 10 2.75615 10 5.51758ZM1.5 5.51758C1.5 7.45057 3.067 9.01758 5 9.01758C6.933 9.01758 8.5 7.45057 8.5 5.51758C8.5 3.58458 6.933 2.01758 5 2.01758C3.067 2.01758 1.5 3.58458 1.5 5.51758Z" fill="#2D284E"/>
<path d="M10 5.51758C10 6.50648 9.70675 7.47318 9.15735 8.29543C8.60794 9.11767 7.82705 9.75854 6.91342 10.137C5.99979 10.5154 4.99445 10.6144 4.02455 10.4215C3.05464 10.2286 2.16373 9.75237 1.46447 9.05311C0.765204 8.35385 0.289 7.46293 0.0960736 6.49303C-0.0968525 5.52312 0.00216418 4.51779 0.380602 3.60416C0.759041 2.69053 1.3999 1.90964 2.22215 1.36023C3.04439 0.810823 4.01109 0.517578 5 0.517578V2.01758C4.30777 2.01758 3.63108 2.22285 3.0555 2.60743C2.47993 2.99202 2.03133 3.53864 1.76642 4.17819C1.50151 4.81773 1.4322 5.52146 1.56725 6.20039C1.7023 6.87933 2.03564 7.50297 2.52513 7.99245C3.01461 8.48194 3.63825 8.81528 4.31718 8.95033C4.99612 9.08537 5.69985 9.01606 6.33939 8.75116C6.97893 8.48625 7.52556 8.03765 7.91014 7.46207C8.29473 6.8865 8.5 6.20981 8.5 5.51758H10Z" fill="#27DAE1"/>
</svg>
